<?xml version="1.0" encoding="utf-8"?>
<!-- Generator: Adobe Illustrator 16.0.0, SVG Export Plug-In . SVG Version: 6.00 Build 0)  -->
<!DOCTYPE svg PUBLIC "-//W3C//DTD SVG 1.1//EN" "http://www.w3.org/Graphics/SVG/1.1/DTD/svg11.dtd">
<svg version="1.1" xmlns="http://www.w3.org/2000/svg" xmlns:xlink="http://www.w3.org/1999/xlink" x="0px" y="0px"
	 width="172.103px" height="189.541px" viewBox="0 0 172.103 189.541" enable-background="new 0 0 172.103 189.541"
	 xml:space="preserve">
<g id="圖層_1">
	<g>
		<defs>
			<rect id="SVGID_21_" x="-1092.359" y="1.615" width="977" height="215"/>
		</defs>
		<clipPath id="SVGID_2_">
			<use xlink:href="#SVGID_21_"  overflow="visible"/>
		</clipPath>
		
			<path clip-path="url(#SVGID_2_)" fill="none" stroke="#76E2E5" stroke-width="0.5" stroke-linecap="round" stroke-linejoin="round" stroke-miterlimit="10" d="
			M-1130.88,71.089c32.691-54.562,122.032-81.222,183.452-34.907c21.787,16.975,41.481,35.835,65.306,49.782
			c33.748,20.138,56.24,20.802,96.276,18.135c64.054-3.962,118.927-23.511,167.856-50.929
			c45.077-25.259,130.621-56.688,186.56-51.582c63.938,5.182,133.371,37.695,187.06,62.596
			c64.206,27.101,78.663,45.292,151.184,40.462c48.055-4.114,100.064-24.229,142.312-43.642"/>
		
			<path clip-path="url(#SVGID_2_)" fill="none" stroke="#76E2E5" stroke-width="0.5" stroke-linecap="round" stroke-linejoin="round" stroke-miterlimit="10" d="
			M-1127.86,84.049c32.69-54.563,119.032-81.225,180.451-34.911c21.787,16.975,41.481,35.835,65.307,49.782
			c33.748,20.137,59.239,20.807,99.276,18.139c64.054-3.961,118.924-25.796,167.853-53.214
			c45.077-25.26,130.605-67.358,186.543-62.251c63.938,5.182,133.055,49.678,187.077,74.154
			c48.615,22.027,78.661,44.403,151.183,39.574c48.055-4.114,100.064-24.229,142.312-43.644"/>
		
			<path clip-path="url(#SVGID_2_)" fill="none" stroke="#76E2E5" stroke-width="0.5" stroke-linecap="round" stroke-linejoin="round" stroke-miterlimit="10" d="
			M-1124.839,97.771c32.691-54.563,116.032-81.229,177.452-34.915c21.787,16.975,41.481,35.835,65.306,49.781
			c33.748,20.138,62.24,20.809,102.276,18.144c64.054-3.962,118.919-28.845,167.849-56.264
			C-566.88,49.259-481.368-3.51-425.43,1.597c63.938,5.183,127.185,56.591,187.095,85.712
			c44.852,21.803,78.66,43.515,151.181,38.685c48.055-4.115,100.064-24.229,142.312-43.642"/>
		
			<path clip-path="url(#SVGID_2_)" fill="none" stroke="#76E2E5" stroke-width="0.5" stroke-linecap="round" stroke-linejoin="round" stroke-miterlimit="10" d="
			M-1121.818,111.492c32.69-54.561,113.032-81.233,174.451-34.918c21.787,16.975,41.481,35.836,65.307,49.782
			c33.748,20.138,65.239,20.814,105.276,18.147c64.054-3.962,118.915-31.893,167.844-59.312
			c45.077-25.259,130.573-88.697,186.511-83.59c63.938,5.183,130.698,65.234,187.112,97.271
			c40.322,22.899,91.125,41.795,151.18,37.796c48.055-4.115,100.064-24.229,142.312-43.643"/>
		
			<path clip-path="url(#SVGID_2_)" fill="none" stroke="#76E2E5" stroke-width="0.5" stroke-linecap="round" stroke-linejoin="round" stroke-miterlimit="10" d="
			M-1118.798,125.215c32.691-54.563,110.032-81.238,171.452-34.923c21.787,16.976,41.481,35.835,65.307,49.781
			c33.748,20.138,68.239,20.818,108.275,18.152c64.054-3.962,118.91-34.942,167.839-62.361
			c45.077-25.259,130.557-99.367,186.495-94.26c63.938,5.182,137.953,78.994,187.13,108.83
			c24.31,14.75,91.124,40.907,151.178,36.906c48.055-4.113,100.064-24.229,142.312-43.642"/>
		
			<path clip-path="url(#SVGID_2_)" fill="none" stroke="#76E2E5" stroke-width="0.5" stroke-linecap="round" stroke-linejoin="round" stroke-miterlimit="10" d="
			M-1115.776,139.698c32.691-54.562,107.032-81.24,168.452-34.926c21.787,16.976,41.481,35.835,65.307,49.782
			c33.748,20.137,71.239,20.822,111.275,18.157c64.054-3.963,118.904-38.754,167.833-66.172
			C-557.832,81.279-472.368-3.497-416.43,1.609c63.938,5.183,138.346,90.195,187.147,120.389
			c32.067,19.84,91.123,40.017,151.177,36.017c48.055-4.114,100.064-24.229,142.312-43.643"/>
		
			<path clip-path="url(#SVGID_2_)" fill="none" stroke="#76E2E5" stroke-width="0.5" stroke-linecap="round" stroke-linejoin="round" stroke-miterlimit="10" d="
			M-1112.753,154.945c32.691-54.561,104.032-81.245,165.452-34.93c21.787,16.975,41.481,35.835,65.307,49.781
			c33.748,20.138,74.239,20.826,114.275,18.161c64.054-3.962,118.897-43.325,167.827-70.744
			C-554.816,91.952-469.368-3.493-413.43,1.613c63.938,5.183,139.316,100.88,187.165,131.947
			c19.808,12.861,80.086,39.863,151.176,35.128c48.055-4.114,100.064-24.23,142.312-43.643"/>
	</g>
	<g>
		<path fill="none" stroke="#76E2E5" stroke-miterlimit="10" d="M21.241,22.024l-8.836,32.778c0,0-37.862,124.951,21.457,131.349
			c59.318,6.397,106.751,1.766,127.893-9.865c27.923-15.361-12.409-173.887-12.409-173.887l-6.312,36.652
			c0,0-25.243-2.069-58.058,1.775s-60.58,9.813-60.58,9.813L21.241,22.024z"/>
		<path fill="none" stroke="#76E2E5" stroke-linecap="round" stroke-linejoin="round" stroke-miterlimit="10" d="M93.058,94.861
			c-0.739-0.37-1.642-0.075-2.015,0.665c-0.705,1.402-1.502,2.171-2.12,2.07c-0.755-0.128-1.69-1.221-2.296-2.739
			c1.278-0.656,2.868-3.666,3.638-5.181l0,0c-0.493-1.787-1.267-0.561-3.874-0.561h-1.816c-2.607,0-5.448-1.859-5.448,0.748
			l0.53,0.812c0.842,1.465,2.389,2.713,3.592,3.731c-0.057,0.088-0.105-0.011-0.144,0.091c-1.166,3.088-1.938,3.254-1.931,3.257
			c-0.152-0.021-0.538-0.383-0.724-0.536c-0.339-0.276-0.689-0.586-1.146-0.731c-0.789-0.245-1.633,0.176-1.882,0.967
			c-0.237,0.752,0.147,1.544,0.866,1.835c0.08,0.055,0.167,0.125,0.264,0.206c0.525,0.43,1.428,1.165,2.609,1.165
			c0.242,0,0.498-0.031,0.764-0.103c1.084-0.291,2.006-1.17,2.872-2.735c0.92,1.412,2.157,2.483,3.624,2.731
			c0.184,0.031,0.394,0.052,0.625,0.052c1.254,0,3.115-0.631,4.676-3.73C94.096,96.135,93.797,95.234,93.058,94.861z"/>
		<g>
			<path fill="none" stroke="#76E2E5" stroke-miterlimit="10" d="M30.699,84.115c-0.021,0-0.045,0-0.066,0
				c-5.363,0-10.466-1.265-15.4-2.112c-2.246-0.385-4.57-0.86-6.836-1.18c-0.82-0.117-1.391-0.914-1.275-1.734
				c0.116-0.821,0.881-1.404,1.696-1.294c2.31,0.327,4.654,0.719,6.923,1.109c4.842,0.831,9.85,1.686,15.023,1.913
				c0.828,0.037,1.47,0.887,1.434,1.714C32.162,83.336,31.498,84.115,30.699,84.115z"/>
		</g>
		<g>
			<path fill="none" stroke="#76E2E5" stroke-miterlimit="10" d="M5.051,97.193c-0.548,0-1.076-0.301-1.34-0.822
				c-0.374-0.739-0.078-1.642,0.66-2.016c6.477-3.279,14.355-4.615,21.904-5.571c0.82-0.102,1.572,0.478,1.678,1.3
				c0.104,0.822-0.479,1.572-1.301,1.677c-7.281,0.922-14.857,2.198-20.926,5.271C5.51,97.141,5.278,97.193,5.051,97.193z"/>
		</g>
		<g>
			<path fill="none" stroke="#76E2E5" stroke-linecap="round" stroke-linejoin="round" stroke-miterlimit="10" d="M142.073,76.115
				c-0.798,0-1.462-0.594-1.497-1.398c-0.037-0.828,0.605-1.509,1.432-1.546c5.176-0.227,10.186-1.077,15.029-1.908
				c2.267-0.389,4.61-0.787,6.918-1.114c0.824-0.116,1.578,0.458,1.695,1.278c0.116,0.82-0.455,1.581-1.275,1.697
				c-2.264,0.32-4.586,0.684-6.83,1.069c-4.937,0.847-10.04,1.923-15.404,1.923C142.117,76.115,142.096,76.115,142.073,76.115z"/>
		</g>
		<g>
			<path fill="none" stroke="#76E2E5" stroke-miterlimit="10" d="M163.656,90.078c-0.229,0-0.46-0.052-0.678-0.162
				c-6.067-3.073-13.643-4.349-20.924-5.27c-0.822-0.104-1.404-0.854-1.301-1.677c0.104-0.822,0.859-1.399,1.677-1.3
				c7.55,0.955,15.429,2.291,21.903,5.57c0.74,0.374,1.035,1.276,0.661,2.016C164.73,89.777,164.203,90.078,163.656,90.078z"/>
		</g>
		<g>
			<path fill="none" stroke="#76E2E5" stroke-miterlimit="10" d="M72.533,78.338c-0.008,2.271-6.788,4.088-15.145,4.059
				c-8.355-0.029-15.122-1.896-15.114-4.166c0.007-2.271,9.917-3.823,15.144-4.057C65.766,73.8,72.541,76.069,72.533,78.338z"/>
			<circle fill="#76E2E5" cx="57.265" cy="78.744" r="3.548"/>
		</g>
		<g>
			<path fill="none" stroke="#76E2E5" stroke-miterlimit="10" d="M95.126,78.338c0.009,2.271,6.789,4.088,15.144,4.059
				c8.355-0.029,15.124-1.896,15.115-4.166c-0.008-2.271-9.917-3.823-15.144-4.057C101.894,73.8,95.118,76.069,95.126,78.338z"/>
			<circle fill="#76E2E5" cx="110.395" cy="78.744" r="3.548"/>
		</g>
	</g>
</g>
<g id="網頁設計1" display="none">
</g>
<g id="網頁設計_x5F_深">
</g>
<g id="配色" display="none">
</g>
<g id="Logo" display="none">
</g>
<g id="吉祥物設計" display="none">
</g>
</svg>
