<?xml version="1.0" encoding="utf-8"?>
<!-- Generator: Adobe Illustrator 16.0.0, SVG Export Plug-In . SVG Version: 6.00 Build 0)  -->
<!DOCTYPE svg PUBLIC "-//W3C//DTD SVG 1.1//EN" "http://www.w3.org/Graphics/SVG/1.1/DTD/svg11.dtd">
<svg version="1.1" xmlns="http://www.w3.org/2000/svg" xmlns:xlink="http://www.w3.org/1999/xlink" x="0px" y="0px"
	 width="124.442px" height="111.678px" viewBox="0 0 124.442 111.678" enable-background="new 0 0 124.442 111.678"
	 xml:space="preserve">
<g id="圖層_1">
	<rect x="-296.556" y="-702.697" display="none" fill="#273040" width="720" height="1205"/>
	<g>
		<polygon fill="#76E2E5" points="38.624,20.984 108.519,20.019 102.976,90.195 75.077,98.04 46.827,91.054 		"/>
		
			<polygon fill="none" stroke="#FFFFFF" stroke-width="5" stroke-linecap="round" stroke-linejoin="round" stroke-miterlimit="10" points="
			20.111,15.955 93.019,15.125 87.062,88.311 57.94,96.421 28.493,89.064 		"/>
		
			<polygon fill="none" stroke="#FFFFFF" stroke-width="2" stroke-linecap="round" stroke-linejoin="round" stroke-miterlimit="10" points="
			31.457,26.615 31.583,37.651 70.21,37.211 70.326,47.326 33.797,47.744 33.757,56.943 69.051,56.54 68.204,69.748 57.237,73.293 
			45.338,69.992 44.68,62.279 34.674,62.107 36.285,78.096 57.362,84.142 77.731,78.149 81.78,26.041 		"/>
	</g>
</g>
<g id="網頁設計1" display="none">
</g>
<g id="網頁設計_x5F_深">
</g>
<g id="配色" display="none">
</g>
<g id="Logo" display="none">
</g>
<g id="吉祥物設計" display="none">
</g>
</svg>
