<?xml version="1.0" encoding="utf-8"?>
<!-- Generator: Adobe Illustrator 16.0.0, SVG Export Plug-In . SVG Version: 6.00 Build 0)  -->
<!DOCTYPE svg PUBLIC "-//W3C//DTD SVG 1.1//EN" "http://www.w3.org/Graphics/SVG/1.1/DTD/svg11.dtd">
<svg version="1.1" xmlns="http://www.w3.org/2000/svg" xmlns:xlink="http://www.w3.org/1999/xlink" x="0px" y="0px"
	 width="119.525px" height="104.355px" viewBox="0 0 119.525 104.355" enable-background="new 0 0 119.525 104.355"
	 xml:space="preserve">
<g id="圖層_1">
	<rect x="-459" y="-864" display="none" fill="#273040" width="720" height="1205"/>
	<g>
		<path fill="#76E2E5" d="M60.276,72.898c0-11.229,9.722-20.01,20.95-20.01C87.25,52.889,92,55.835,97,59.996v-28.15
			C97,28.842,93.33,25,90.326,25h-54.42C32.902,25,31,28.842,31,31.846v50.007C31,84.856,32.902,86,35.906,86h29.725
			C62.308,85,60.276,78.2,60.276,72.898z"/>
		<circle fill="#76E2E5" cx="89.515" cy="76.541" r="19.192"/>
		
			<polyline fill="none" stroke="#FFFFFF" stroke-width="5" stroke-linecap="round" stroke-linejoin="round" stroke-miterlimit="10" points="
			31.645,36.49 35.492,40.852 44.616,32.133 		"/>
		
			<polyline fill="none" stroke="#FFFFFF" stroke-width="5" stroke-linecap="round" stroke-linejoin="round" stroke-miterlimit="10" points="
			31.645,53.072 35.492,57.433 44.616,48.715 		"/>
		
			<polyline fill="none" stroke="#FFFFFF" stroke-width="5" stroke-linecap="round" stroke-linejoin="round" stroke-miterlimit="10" points="
			31.645,69.654 35.492,74.014 44.616,65.296 		"/>
		
			<circle fill="none" stroke="#FFFFFF" stroke-width="5" stroke-linecap="round" stroke-linejoin="round" stroke-miterlimit="10" cx="80.608" cy="73.545" r="20.332"/>
		
			<polyline fill="none" stroke="#FFFFFF" stroke-width="5" stroke-linecap="round" stroke-linejoin="round" stroke-miterlimit="10" points="
			78.5,61 78.5,73.5 92,73.5 		"/>
		
			<line fill="none" stroke="#FFFFFF" stroke-width="5" stroke-linecap="round" stroke-linejoin="round" stroke-miterlimit="10" x1="56" y1="35.5" x2="78" y2="35.5"/>
		
			<line fill="none" stroke="#FFFFFF" stroke-width="5" stroke-linecap="round" stroke-linejoin="round" stroke-miterlimit="10" x1="56" y1="50.5" x2="63" y2="50.5"/>
		<path fill="#FFFFFF" d="M55.8,84H22.848C20.921,84,18,81.429,18,79.502V19.67c0-1.928,2.921-3.67,4.848-3.67h65.271
			C90.047,16,92,17.742,92,19.67v29.716c2,0.621,3,1.347,5,2.179V19.67C97,15.6,92.189,12,88.118,12H22.848
			C18.777,12,15,15.6,15,19.67v59.832C15,83.572,18.777,86,22.848,86h34.81C56.938,85,56.313,85,55.8,84z"/>
	</g>
</g>
<g id="網頁設計1" display="none">
</g>
<g id="網頁設計_x5F_深">
</g>
<g id="配色" display="none">
</g>
<g id="Logo" display="none">
</g>
<g id="吉祥物設計" display="none">
</g>
</svg>
