<?xml version="1.0" encoding="utf-8"?>
<!-- Generator: Adobe Illustrator 16.0.0, SVG Export Plug-In . SVG Version: 6.00 Build 0)  -->
<!DOCTYPE svg PUBLIC "-//W3C//DTD SVG 1.1//EN" "http://www.w3.org/Graphics/SVG/1.1/DTD/svg11.dtd">
<svg version="1.1" xmlns="http://www.w3.org/2000/svg" xmlns:xlink="http://www.w3.org/1999/xlink" x="0px" y="0px"
	 width="120.965px" height="111.416px" viewBox="0 0 120.965 111.416" enable-background="new 0 0 120.965 111.416"
	 xml:space="preserve">
<g id="圖層_1">
	<rect x="-136.474" y="-702.959" display="none" fill="#273040" width="720" height="1205"/>
	<g>
		<polygon fill="#76E2E5" points="38.359,22.341 108.344,21.375 102.794,91.643 74.86,99.497 46.573,92.502 		"/>
		
			<polygon fill="none" stroke="#FFFFFF" stroke-width="5" stroke-linecap="round" stroke-linejoin="round" stroke-miterlimit="10" points="
			17.193,16.146 90.827,15.772 84.342,89.646 54.882,97.653 25.186,90.033 		"/>
		
			<polygon fill="none" stroke="#FFFFFF" stroke-width="2" stroke-linecap="round" stroke-linejoin="round" stroke-miterlimit="10" points="
			77.175,29.385 31.438,29.616 34.775,57.59 65.884,57.431 64.288,67.775 54.519,71.275 44.183,67.941 43.464,62.963 34.354,63.009 
			36.241,76.114 54.116,82.237 73.254,75.995 75.773,49.257 43.431,49.419 43.339,38.206 76.076,38.401 		"/>
	</g>
</g>
<g id="網頁設計1" display="none">
</g>
<g id="網頁設計_x5F_深">
</g>
<g id="配色" display="none">
</g>
<g id="Logo" display="none">
</g>
<g id="吉祥物設計" display="none">
</g>
</svg>
