<?xml version="1.0" encoding="utf-8"?>
<!-- Generator: Adobe Illustrator 16.0.0, SVG Export Plug-In . SVG Version: 6.00 Build 0)  -->
<!DOCTYPE svg PUBLIC "-//W3C//DTD SVG 1.1//EN" "http://www.w3.org/Graphics/SVG/1.1/DTD/svg11.dtd">
<svg version="1.1" xmlns="http://www.w3.org/2000/svg" xmlns:xlink="http://www.w3.org/1999/xlink" x="0px" y="0px"
	 width="118.344px" height="105.338px" viewBox="0 0 118.344 105.338" enable-background="new 0 0 118.344 105.338"
	 xml:space="preserve">
<g id="圖層_1">
	<rect x="-136.54" y="-863.018" display="none" fill="#273040" width="720" height="1205"/>
	<g>
		<path fill="#76E2E5" d="M71.188,99.337c-1.899,1.899-4.979,1.899-6.88,0L26.963,61.991c-1.899-1.9-1.899-4.98,0-6.88
			l37.346-37.347c1.901-1.899,4.98-1.899,6.88,0l37.346,37.346c1.9,1.9,1.9,4.98,0,6.881L71.188,99.337z"/>
		<path fill="none" stroke="#FFFFFF" stroke-width="2" stroke-linecap="round" stroke-linejoin="round" stroke-miterlimit="10" d="
			M40.83,25.488l8.437,8.438c0.832-0.405,1.764-0.641,2.752-0.641c3.481,0,6.304,2.822,6.304,6.304c0,0.987-0.234,1.92-0.641,2.752
			l6.651,6.65c0.739-0.304,1.545-0.474,2.393-0.474c3.48,0,6.303,2.823,6.303,6.303c0,3.48-2.822,6.303-6.303,6.303
			s-6.304-2.822-6.304-6.303c0-0.902-0.271-1.759,0.069-2.534L53.46,45.72v20.07c2,0.938,4.397,3.197,4.397,5.838
			c0,3.481-2.591,6.303-6.071,6.303s-6.795-2.821-6.795-6.303c0-2.655,2.469-4.922,3.469-5.85v-20.34
			c-1-0.929-3.355-3.195-3.355-5.85c0-0.76,0.447-1.483,0.693-2.157l-8.455-8.607"/>
		<path fill="none" stroke="#FFFFFF" stroke-width="5" stroke-linecap="round" stroke-linejoin="round" stroke-miterlimit="10" d="
			M36.653,29.619L13.581,52.714c-1.9,1.9-1.889,4.979,0.011,6.879l37.353,37.347c1.9,1.9,4.982,1.9,6.883,0l37.348-37.347
			c1.9-1.9,1.901-4.979,0.002-6.881L57.831,15.367c-1.9-1.9-4.98-1.9-6.881,0l-9.357,9.358"/>
	</g>
</g>
<g id="網頁設計1" display="none">
</g>
<g id="網頁設計_x5F_深">
</g>
<g id="配色" display="none">
</g>
<g id="Logo" display="none">
</g>
<g id="吉祥物設計" display="none">
</g>
</svg>
