<?xml version="1.0" encoding="utf-8"?>
<!-- Generator: Adobe Illustrator 16.0.0, SVG Export Plug-In . SVG Version: 6.00 Build 0)  -->
<!DOCTYPE svg PUBLIC "-//W3C//DTD SVG 1.1//EN" "http://www.w3.org/Graphics/SVG/1.1/DTD/svg11.dtd">
<svg version="1.1" xmlns="http://www.w3.org/2000/svg" xmlns:xlink="http://www.w3.org/1999/xlink" x="0px" y="0px"
	 width="177.251px" height="170.562px" viewBox="0 0 177.251 170.562" enable-background="new 0 0 177.251 170.562"
	 xml:space="preserve">
<g id="圖層_1">
	<rect x="-270" y="-314" display="none" fill="#273040" width="720" height="1205"/>
	<path fill="#1A212B" d="M176.015,132.572C180.066,152.842,136.468,170,87.686,170s-92.943-17.279-88.328-37.428
		c5.503-24.03,39.546-37.429,88.328-37.429S171.211,108.542,176.015,132.572z"/>
	<g>
		<path fill="#76E2E5" d="M143.165,86.803l28.554-53.372c1.157-2.299,0.745-4.842-0.921-5.679l-7.783-4.001
			c-1.664-0.838-3.95,0.348-5.108,2.646L130.68,80.522L143.165,86.803z"/>
		<g>
			<path fill="#76E2E5" d="M27.723,131.304c1.05,1.329,2.449,2.139,3.87,2.876c1.421,0.741,2.864,1.41,4.014,2.457
				c1.515,0.794,3.099,1.524,4.737,2.195c11.46,4.703,25.487,6.569,35.828,7.582c20.563,2.027,43.732,2.896,63.426-3.764
				c20.563-6.951,44.601-28.094,22.302-48.078c-15.351-13.901-41.417-22.01-61.979-17.956c-5.358,1.159-11.077,2.969-15.495,5.974
				c-1.47,1.002-2.795,2.135-3.901,3.431c-4.352,4.497-3.772,10.868-3.193,16.661c0,4.054-2.318,7.531-6.951,8.689
				c-9.268,2.317-14.48-5.213-23.169-7.531c-6.951-1.737-15.061-1.737-21.001,3.319c-1.147,0.915-2.173,1.967-3.031,3.155
				c-0.859,1.186-1.551,2.505-2.034,3.953c-2.316,5.214,0,10.427,3.521,14.265C25.52,129.557,26.529,130.491,27.723,131.304"/>
		</g>
		<g>
			<path fill="none" stroke="#FFFFFF" stroke-width="3" stroke-miterlimit="10" d="M144.813,67.352l27.19-49.67
				c1.082-2.151,0.215-4.771-1.936-5.852l-10.069-5.146c-2.15-1.082-4.771-0.215-5.853,1.935l-25.464,50.618L144.813,67.352z"/>
			<path fill="none" stroke="#FFFFFF" stroke-width="3" stroke-linecap="round" stroke-linejoin="round" stroke-miterlimit="10" d="
				M129.948,59.316c-3.84-0.023-7.122-0.623-10.268,1.742c-3.225,2.803-5.675,7.556-7.051,11.374
				c-1.295,3.381-1.299,8.355-4.046,11.018c-3.346,3.46-7.465,0.26-11.621-0.5c4.215,1.674,4.795,4.454,7.856,7.501
				c3.637,3.604,7.893,5.058,12.966,5.759c9.448,1.498,19.398-3.467,24.319-11.839c1.871-2.823,3.685-11.809,2.751-15.371
				c-0.852-4-6.489-4.854-10.149-7.105C133.474,61.218,130.922,60.171,129.948,59.316"/>
			<path fill="#FFFFFF" d="M140.572,86.375c-4.987,7.631-14.8,11.881-23.978,10.107c-4.93-0.854-9.046-2.381-12.51-5.892
				c-2.916-2.968-3.116-5.53-7.188-7.26c4.036,0.873,7.677,3.967,11.017,0.865c2.738-2.381,2.854-7.03,4.194-10.14
				c0,0,2.86,8.015,5.995,5.811c3.135-2.203,5.768-6.468,8.222-5.235c2.453,1.231-3.315,9.657,0.831,11.864
				c4.144,2.206,5.896-5.007,7.354-3.636c1.456,1.37,0.242,5.758,1.458,6.647S140.572,86.375,140.572,86.375z"/>
			<g>
				<g>
					<path fill="#FFFFFF" d="M10.403,120.174c3.565,3.81,9.465,6.59,14.229,8.479c6.913,2.742,14.075,4.526,21.38,5.869
						c13.243,2.435,26.886,3.454,40.329,3.846c25.063,0.729,53.055-2.724,71.527-21.427c6.671-6.756,10.631-15.876,7.961-25.297
						c-3.037-10.715-14.452-18.189-23.637-23.244c-20.283-11.162-48.256-15.682-69.204-3.797c-3.493,1.981-7.193,5.248-8.669,9.07
						c-2.199,5.695-0.241,11.089-1.274,16.8c-1.514,8.364-12.406,6.421-17.656,3.738c-4.663-2.383-8.817-5.196-13.993-6.394
						c-9.074-2.1-20.617-0.468-26.113,7.976c-5.865,9.01-2.865,18.381,5.424,24.615c1.547,1.164,3.04-1.442,1.514-2.59
						c-7.851-5.905-9.593-15.219-2.511-22.565c5.793-6.009,14.78-5.957,22.305-4.216c10.418,2.411,17.276,12.193,28.751,6.913
						c3.724-1.713,5.305-5.799,5.525-9.604c0.167-2.877-0.494-5.838-0.342-8.76c0.262-5.005,3.332-8.728,7.226-11.543
						c11.155-8.066,27.414-8.349,40.438-6.285c20.217,3.205,63.146,21.577,46.083,48.208c-6.863,10.713-19.866,17.338-31.654,20.936
						c-14.565,4.446-30.165,4.901-45.271,4.349c-12.012-0.44-24.114-1.572-35.961-3.621c-5.64-0.976-11.2-2.346-16.644-4.112
						c-5.744-1.863-13.414-4.948-17.642-9.465C11.2,116.638,9.083,118.764,10.403,120.174L10.403,120.174z"/>
				</g>
			</g>
			<g>
				<g>
					<path fill="#FFFFFF" d="M99.408,101.345c-6.627,0.226-13.386-0.463-19.321-3.617c-6.957-3.696-6.538-10.896-2.043-16.517
						c7.394-9.248,23.49-9.176,34.097-8.279c9.429,0.797,35.154,9.521,21.146,22.368c-4.499,4.126-12.2,4.765-17.942,5.292
						C110.113,101.074,104.659,101.524,99.408,101.345c-1.936-0.066-1.93,2.934,0,3c7.161,0.244,14.67-0.422,21.758-1.435
						c6.702-0.958,13.814-3.253,17.384-9.415c8.819-15.229-16.288-22.539-26.409-23.563c-13.535-1.37-32.244,0.073-39.155,13.757
						c-8.202,16.239,15.563,21.025,26.423,20.655C101.338,104.28,101.344,101.279,99.408,101.345z"/>
				</g>
			</g>
			<g>
				<g>
					<path fill="#FFFFFF" d="M133.645,121.93c-3.661,0.145-5.524-2.251-4.67-5.827c0.85-3.561,4.413-4.639,7.657-4.145
						c3.681,0.562,6.254,4.171,4.472,7.737C140.013,121.879,135.763,122.058,133.645,121.93c-1.934-0.116-1.922,2.885,0,3
						c4.511,0.271,9.356-1.003,10.828-5.672c1.619-5.137-2.954-9.569-7.666-10.287c-5.326-0.812-9.684,1.972-10.934,7.204
						c-1.221,5.114,2.854,8.949,7.771,8.755C135.572,124.854,135.58,121.854,133.645,121.93z"/>
				</g>
			</g>
			<g>
				<g>
					<path fill="#FFFFFF" d="M110.607,125.666c-3.662,0.145-5.525-2.251-4.671-5.828c0.851-3.56,4.412-4.638,7.656-4.144
						c3.681,0.562,6.255,4.17,4.473,7.736C116.975,125.613,112.726,125.794,110.607,125.666c-1.934-0.116-1.922,2.884,0,3
						c4.511,0.272,9.355-1.005,10.827-5.673c1.62-5.137-2.955-9.568-7.667-10.286c-5.326-0.813-9.681,1.971-10.932,7.203
						c-1.223,5.114,2.853,8.95,7.771,8.756C112.535,128.59,112.543,125.59,110.607,125.666z"/>
				</g>
			</g>
			<g>
				<g>
					<path fill="#FFFFFF" d="M82.587,126.289c-3.662,0.144-5.525-2.251-4.671-5.828c0.851-3.561,4.414-4.639,7.658-4.144
						c3.679,0.562,6.255,4.17,4.473,7.736C88.952,126.243,84.709,126.407,82.587,126.289c-1.934-0.107-1.924,2.894,0,3
						c4.515,0.251,9.354-0.99,10.829-5.673c1.618-5.137-2.955-9.567-7.667-10.286c-5.327-0.813-9.684,1.971-10.934,7.203
						c-1.222,5.115,2.853,8.949,7.771,8.756C84.515,129.214,84.522,126.213,82.587,126.289z"/>
				</g>
			</g>
			<g>
				<g>
					<path fill="#FFFFFF" d="M22.45,108.639c-4.069,0.097-8.796-2.3-5.161-6.908c2.09-2.649,6.644-2.592,9.627-2.126
						c3.799,0.593,9.13,5.656,3.242,8.109C27.953,108.632,24.831,108.746,22.45,108.639c-1.935-0.087-1.927,2.913,0,3
						c3.944,0.178,10.893-0.145,12.654-4.525c2.365-5.881-3.206-9.991-8.571-10.578c-4.879-0.534-11.578,0.571-13.126,6.128
						c-1.696,6.094,3.598,9.104,9.043,8.975C24.382,111.593,24.386,108.593,22.45,108.639z"/>
				</g>
			</g>
		</g>
	</g>
</g>
<g id="網頁設計1" display="none">
</g>
<g id="網頁設計_x5F_深">
</g>
<g id="配色" display="none">
</g>
<g id="Logo" display="none">
</g>
<g id="吉祥物設計" display="none">
</g>
</svg>
