<?xml version="1.0" encoding="utf-8"?>
<!-- Generator: Adobe Illustrator 16.0.0, SVG Export Plug-In . SVG Version: 6.00 Build 0)  -->
<!DOCTYPE svg PUBLIC "-//W3C//DTD SVG 1.1//EN" "http://www.w3.org/Graphics/SVG/1.1/DTD/svg11.dtd">
<svg version="1.1" xmlns="http://www.w3.org/2000/svg" xmlns:xlink="http://www.w3.org/1999/xlink" x="0px" y="0px"
	 width="177.251px" height="170.562px" viewBox="0 0 177.251 170.562" enable-background="new 0 0 177.251 170.562"
	 xml:space="preserve">
<g id="圖層_1">
	<rect x="-44.749" y="-314" display="none" fill="#273040" width="720" height="1205"/>
	<path fill="#1A212B" d="M177.488,133.232c4.052,20.27-39.547,37.428-88.329,37.428s-92.943-17.279-88.328-37.428
		c5.503-24.03,39.546-37.429,88.328-37.429S172.685,109.202,177.488,133.232z"/>
	<path fill="#76E2E5" d="M81.517,138.552c-2.9,2.9-7.602,2.9-10.502,0L14.012,81.549c-2.9-2.901-2.9-7.602,0-10.501l57.004-57.004
		c2.899-2.9,7.601-2.9,10.501,0l57.003,57.003c2.9,2.9,2.9,7.601,0,10.502L81.517,138.552z"/>
	<path fill="none" stroke="#FFFFFF" stroke-width="3" stroke-linecap="round" stroke-linejoin="round" stroke-miterlimit="10" d="
		M161.792,64.962L104.789,7.959c-2.9-2.9-7.602-2.9-10.501,0L78.84,23.407l12.878,12.877c1.271-0.619,2.692-0.976,4.2-0.976
		c5.313,0,9.621,4.308,9.621,9.621c0,1.508-0.357,2.931-0.976,4.201l10.149,10.151c1.128-0.463,2.359-0.723,3.653-0.723
		c5.313,0,9.62,4.308,9.62,9.62c0,5.313-4.308,9.621-9.62,9.621s-9.621-4.308-9.621-9.621c0-1.376-0.099-2.684,0.423-3.868
		L98.751,54.288v30.635c4,1.431,6.395,4.878,6.395,8.91c0,5.313-4.111,9.621-9.424,9.621S85.9,99.146,85.9,93.833
		c0-4.051,2.851-7.511,5.851-8.929V53.858c-3-1.418-5.753-4.878-5.753-8.929c0-1.158,0.366-2.263,0.741-3.292l-13.064-13.14
		L37.246,64.963c-2.9,2.899-2.881,7.6,0.02,10.5l57.013,57.003c2.9,2.9,7.605,2.9,10.506,0l57.005-57.003
		C164.689,72.563,164.692,67.862,161.792,64.962z"/>
</g>
<g id="網頁設計1" display="none">
</g>
<g id="網頁設計_x5F_深">
</g>
<g id="配色" display="none">
</g>
<g id="Logo" display="none">
</g>
<g id="吉祥物設計" display="none">
</g>
</svg>
