<?xml version="1.0" encoding="utf-8"?>
<!-- Generator: Adobe Illustrator 16.0.0, SVG Export Plug-In . SVG Version: 6.00 Build 0)  -->
<!DOCTYPE svg PUBLIC "-//W3C//DTD SVG 1.1//EN" "http://www.w3.org/Graphics/SVG/1.1/DTD/svg11.dtd">
<svg version="1.1" xmlns="http://www.w3.org/2000/svg" xmlns:xlink="http://www.w3.org/1999/xlink" x="0px" y="0px"
	 width="177.251px" height="170.562px" viewBox="0 0 177.251 170.562" enable-background="new 0 0 177.251 170.562"
	 xml:space="preserve">
<g id="圖層_1">
	<rect x="-490.749" y="-107" display="none" fill="#273040" width="720" height="1205"/>
	<path fill="#1A212B" d="M175.266,132.572C179.317,152.842,135.719,170,86.937,170s-92.943-17.279-88.328-37.428
		c5.503-24.03,39.546-37.429,88.328-37.429S170.462,108.542,175.266,132.572z"/>
	<path fill="#76E2E5" d="M142.252,85.173c0,28.368-8.825,51.364-56.011,51.364c-30.934,0-51.204-23.341-56.011-51.364
		C25.479,57.468,53.313,40.036,86.241,33.81C116.538,28.081,142.252,56.806,142.252,85.173z"/>
	<g>
		<polygon fill="#FFFFFF" points="70.334,132 56.251,132 56.251,141 78.251,141 78.251,110 70.251,110 		"/>
		<polygon fill="#FFFFFF" points="115.251,110 115.251,117 95.251,117 95.251,123 115.251,123 115.251,142 87.251,142 87.251,135 
			108.251,135 108.251,129 87.251,129 87.251,110 		"/>
	</g>
	<g>
		<polygon fill="none" stroke="#FFFFFF" stroke-width="3" stroke-miterlimit="10" points="45.251,10.5 126.809,10.5 119.21,92.283 
			86.536,100.985 53.689,92.379 		"/>
		
			<polygon fill="none" stroke="#FFFFFF" stroke-width="3" stroke-linecap="round" stroke-linejoin="round" stroke-miterlimit="10" points="
			74.751,26.5 82.751,26.5 82.751,83.244 58.751,76.119 58.751,67.467 74.751,69.757 		"/>
		
			<polygon fill="none" stroke="#FFFFFF" stroke-width="3" stroke-linecap="round" stroke-linejoin="round" stroke-miterlimit="10" points="
			89.751,27.5 89.751,61.869 103.751,58.562 103.751,70.012 89.751,74.084 89.751,83.244 110.806,77.392 113.684,48.129 
			98.751,49.655 98.751,34.897 114.751,35.151 114.751,27.5 		"/>
	</g>
</g>
<g id="網頁設計1" display="none">
</g>
<g id="網頁設計_x5F_深">
</g>
<g id="配色" display="none">
</g>
<g id="Logo" display="none">
</g>
<g id="吉祥物設計" display="none">
</g>
</svg>
