<?xml version="1.0" encoding="utf-8"?>
<!-- Generator: Adobe Illustrator 16.0.0, SVG Export Plug-In . SVG Version: 6.00 Build 0)  -->
<!DOCTYPE svg PUBLIC "-//W3C//DTD SVG 1.1//EN" "http://www.w3.org/Graphics/SVG/1.1/DTD/svg11.dtd">
<svg version="1.1" xmlns="http://www.w3.org/2000/svg" xmlns:xlink="http://www.w3.org/1999/xlink" x="0px" y="0px"
	 width="121.434px" height="111.375px" viewBox="0 0 121.434 111.375" enable-background="new 0 0 121.434 111.375"
	 xml:space="preserve">
<g id="圖層_1">
	<rect x="-459.279" y="-703" display="none" fill="#273040" width="720" height="1205"/>
	<g>
		<polygon fill="#76E2E5" points="37.331,21.363 103.991,20.443 98.705,87.372 72.095,94.855 45.152,88.192 		"/>
		
			<polygon fill="none" stroke="#FFFFFF" stroke-width="5" stroke-linecap="round" stroke-linejoin="round" stroke-miterlimit="10" points="
			20.315,15.5 92.018,15.5 85.337,86.979 56.61,94.418 27.734,87.169 		"/>
		
			<polygon fill="none" stroke="#FFFFFF" stroke-width="2" stroke-linecap="round" stroke-linejoin="round" stroke-miterlimit="10" points="
			46.721,29 53.721,29 53.721,79.405 31.721,73.143 31.721,65.536 46.721,67.551 		"/>
		
			<polygon fill="none" stroke="#FFFFFF" stroke-width="2" stroke-linecap="round" stroke-linejoin="round" stroke-miterlimit="10" points="
			58.721,29 58.721,61.308 72.721,58.323 72.721,68.653 58.721,72.325 58.721,80.587 78.487,75.309 81.14,48.913 67.721,50.29 
			67.721,36.979 81.721,37.209 81.721,29 		"/>
	</g>
</g>
<g id="網頁設計1" display="none">
</g>
<g id="網頁設計_x5F_深">
</g>
<g id="配色" display="none">
</g>
<g id="Logo" display="none">
</g>
<g id="吉祥物設計" display="none">
</g>
</svg>
