<?xml version="1.0" encoding="utf-8"?>
<!-- Generator: Adobe Illustrator 16.0.0, SVG Export Plug-In . SVG Version: 6.00 Build 0)  -->
<!DOCTYPE svg PUBLIC "-//W3C//DTD SVG 1.1//EN" "http://www.w3.org/Graphics/SVG/1.1/DTD/svg11.dtd">
<svg version="1.1" xmlns="http://www.w3.org/2000/svg" xmlns:xlink="http://www.w3.org/1999/xlink" x="0px" y="0px"
	 width="121.964px" height="104.78px" viewBox="0 0 121.964 104.78" enable-background="new 0 0 121.964 104.78"
	 xml:space="preserve">
<g id="圖層_1">
	<rect x="-298.61" y="-863.575" display="none" fill="#273040" width="720" height="1205"/>
	<g>
		<path fill="#76E2E5" d="M92.115,59.22l17.439-32.599c0.707-1.405,0.455-2.957-0.561-3.469l-4.757-2.445
			c-1.016-0.511-2.411,0.214-3.119,1.618l-16.63,33.059L92.115,59.22z"/>
		<g>
			<path fill="#76E2E5" d="M23.448,85.457c0.642,0.813,1.497,1.306,2.365,1.758s1.748,0.862,2.452,1.501
				c0.924,0.484,1.892,0.931,2.893,1.34c6.998,2.873,15.567,4.014,21.884,4.631c12.56,1.239,26.711,1.771,38.74-2.297
				c12.558-4.247,27.24-17.16,13.62-29.367c-9.376-8.49-25.296-13.443-37.854-10.966c-3.274,0.707-6.767,1.813-9.465,3.648
				c-0.899,0.612-1.707,1.305-2.383,2.095c-2.658,2.746-2.305,6.639-1.952,10.176c0,2.476-1.416,4.601-4.245,5.308
				c-5.66,1.415-8.844-3.185-14.15-4.601c-4.247-1.06-9.2-1.06-12.827,2.029c-0.702,0.557-1.327,1.2-1.852,1.927
				c-0.525,0.723-0.948,1.529-1.243,2.414c-1.414,3.185,0,6.368,2.151,8.713C22.104,84.391,22.72,84.962,23.448,85.457"/>
		</g>
		<g>
			<path fill="none" stroke="#FFFFFF" stroke-width="5" stroke-miterlimit="10" d="M94.023,47.339l16.607-30.337
				c0.661-1.314,0.132-2.913-1.182-3.574l-6.149-3.144c-1.313-0.662-2.915-0.132-3.575,1.183L84.171,42.383L94.023,47.339z"/>
			<path fill="none" stroke="#FFFFFF" stroke-width="5" stroke-linecap="round" stroke-linejoin="round" stroke-miterlimit="10" d="
				M84.943,42.433c-2.345-0.015-4.349-0.381-6.27,1.063c-1.971,1.712-3.467,4.615-4.307,6.947c-0.792,2.064-0.794,5.103-2.471,6.729
				c-2.045,2.113-4.687,1.16-7.099-0.306c2.186,2.354,2.928,2.721,4.8,4.582c2.22,2.201,4.818,3.09,7.917,3.519
				c5.772,0.913,11.849-2.12,14.854-7.231c1.145-1.727,2.251-7.215,1.68-9.389c-0.519-2.444-3.964-2.965-6.196-4.341
				C87.099,43.594,85.54,42.954,84.943,42.433"/>
			<path fill="none" stroke="#FFFFFF" stroke-width="2" stroke-miterlimit="10" d="M74.048,51.433c0,0,1.748,4.896,3.662,3.55
				c1.913-1.347,3.523-3.949,5.022-3.197c1.497,0.752-2.025,5.898,0.508,7.245c2.531,1.348,3.601-3.057,4.491-2.221
				c0.889,0.838,0.146,3.52,0.89,4.062c0.742,0.542,2.812-1.913,2.812-1.913"/>
			<path fill="none" stroke="#FFFFFF" stroke-width="2" stroke-miterlimit="10" d="M87.823,79.885
				c-2.407,0.577-5.127-0.852-4.314-4.679c0.635-2.976,3.805-3.671,5.881-3.374c1.923,0.319,4.214,2.021,3.582,4.994
				c-0.573,2.352-3.245,2.573-4.892,3.034L87.823,79.885z"/>
			<path fill="none" stroke="#FFFFFF" stroke-width="2" stroke-miterlimit="10" d="M72.229,82.971
				c-2.471,0.204-4.938-1.626-3.549-5.282c1.078-2.843,4.319-3.046,6.324-2.438c1.853,0.61,3.857,2.642,2.778,5.486
				c-0.926,2.234-3.601,2.047-5.297,2.25L72.229,82.971z"/>
			<path fill="none" stroke="#FFFFFF" stroke-width="2" stroke-miterlimit="10" d="M56.017,84.254
				c-2.468,0.203-4.937-1.625-3.548-5.281c1.08-2.846,4.321-3.048,6.326-2.438c1.852,0.61,3.856,2.642,2.777,5.485
				c-0.926,2.234-3.6,2.047-5.298,2.25L56.017,84.254z"/>
			<path fill="none" stroke="#FFFFFF" stroke-width="2" stroke-miterlimit="10" d="M21.053,73.478
				c-2.298,0.143-4.597-1.149-3.303-3.735c1.005-2.011,4.02-2.154,5.889-1.724c1.723,0.43,3.591,1.867,2.585,3.879
				c-0.862,1.58-3.351,1.447-4.932,1.59L21.053,73.478z"/>
			<path fill="none" stroke="#FFFFFF" stroke-width="5" stroke-miterlimit="10" d="M94.023,47.339l16.607-30.337
				c0.661-1.314,0.132-2.913-1.182-3.574l-6.149-3.144c-1.313-0.662-2.915-0.132-3.575,1.183L84.171,42.383L94.023,47.339z"/>
			<path fill="#FFFFFF" d="M66.538,68.126l-0.29-0.009c-6.848,0.338-12.702-1.585-14.552-4.778
				c-1.063-1.838-0.771-4.068,0.867-6.632c2.679-4.183,9.908-6.08,16.976-6.296c0.133-0.498,0.277-0.978,0.448-1.425
				c0.047-0.129,0.104-0.265,0.153-0.396c-7.391,0.122-15.805,1.999-19.097,7.144c-2.535,3.958-1.895,6.813-0.91,8.512
				c2.689,4.642,10.401,5.957,16.127,5.675l1.099,0.039l0.048-0.099c0.788-0.055,1.689-0.169,2.658-0.234
				C68.829,69.24,67.656,68.749,66.538,68.126z"/>
			<path fill="#FFFFFF" d="M102.188,53.166c-0.885-0.803-1.831-1.582-2.828-2.337c-0.195,1.671-0.545,3.439-0.976,5.015
				c0.263,0.225,0.53,0.448,0.781,0.677c4.064,3.64,5.716,7.474,4.912,11.393c-1.448,7.061-10.539,13.571-18.771,16.354
				c-12.944,4.375-28.551,3.563-40.701,2.361c-6.283-0.615-15.494-1.786-22.886-4.818c-0.949-0.391-1.854-0.806-2.69-1.233
				c-0.812-0.681-1.707-1.136-2.504-1.547l-4.399-3.536c-1.253-1.404-3.033-4.051-1.808-6.808l0.078-0.202
				c0.236-0.71,0.58-1.378,1.022-1.988c0.432-0.594,0.959-1.143,1.626-1.675c3.493-2.975,8.331-2.57,11.744-1.716
				c1.835,0.489,3.434,1.41,5.128,2.384c3.052,1.756,6.504,3.745,11.213,2.568c3.869-0.968,6.273-3.995,6.273-7.895l-0.011-0.226
				c-0.404-4.045-0.537-7.07,1.473-9.146l0.093-0.102c0.561-0.654,1.272-1.279,2.118-1.854c2.22-1.511,5.375-2.715,9.34-3.573
				c3.486-0.687,7.352-0.81,11.373-0.398c0.771-1.48,1.68-2.931,2.707-4.208c-5.268-0.771-10.387-0.723-14.994,0.186
				c-4.64,1.004-8.228,2.398-10.968,4.264c-1.154,0.785-2.149,1.659-2.961,2.598c-3.529,3.695-3.061,8.794-2.684,12.561
				c-0.025,1.061-0.448,2.812-2.855,3.413c-2.934,0.737-5.111-0.516-7.864-2.101c-1.786-1.027-3.81-2.192-6.252-2.843
				c-6.32-1.582-11.935-0.641-15.742,2.604c-0.931,0.74-1.742,1.585-2.412,2.511c-0.692,0.953-1.234,1.998-1.614,3.105
				c-1.623,3.762-0.621,8.023,2.754,11.705l4.966,4.079l0.595,0.309c0.688,0.353,1.337,0.687,1.767,1.078l0.217,0.196l0.258,0.136
				c1.022,0.536,2.133,1.051,3.299,1.53c7.943,3.259,17.594,4.491,24.16,5.137c5.297,0.521,11.233,0.971,17.361,0.97
				c8.446,0,17.251-0.854,25.227-3.551c9.467-3.2,19.862-10.538,21.747-19.723C109.291,64.967,108.836,59.123,102.188,53.166z"/>
		</g>
	</g>
	
		<line fill="none" stroke="#FFFFFF" stroke-width="3" stroke-linecap="round" stroke-linejoin="round" stroke-miterlimit="10" x1="98.411" y1="17.478" x2="106.06" y2="21.644"/>
</g>
<g id="網頁設計1" display="none">
</g>
<g id="網頁設計_x5F_深">
</g>
<g id="配色" display="none">
</g>
<g id="Logo" display="none">
</g>
<g id="吉祥物設計" display="none">
</g>
</svg>
