<?xml version="1.0" encoding="utf-8"?>
<!-- Generator: Adobe Illustrator 16.0.0, SVG Export Plug-In . SVG Version: 6.00 Build 0)  -->
<!DOCTYPE svg PUBLIC "-//W3C//DTD SVG 1.1//EN" "http://www.w3.org/Graphics/SVG/1.1/DTD/svg11.dtd">
<svg version="1.1" xmlns="http://www.w3.org/2000/svg" xmlns:xlink="http://www.w3.org/1999/xlink" x="0px" y="0px"
	 width="177.251px" height="170.562px" viewBox="0 0 177.251 170.562" enable-background="new 0 0 177.251 170.562"
	 xml:space="preserve">
<g id="圖層_1">
	<rect x="-44.024" y="-105.901" display="none" fill="#273040" width="720" height="1205"/>
	<path fill="#1A212B" d="M178.213,133.331c4.052,20.27-39.547,37.428-88.329,37.428S-3.06,153.479,1.556,133.331
		c5.503-24.03,39.546-37.429,88.328-37.429S173.409,109.301,178.213,133.331z"/>
	<path fill="#76E2E5" d="M145.199,85.932c0,28.368-8.825,51.364-56.011,51.364c-30.934,0-51.204-23.341-56.011-51.364
		c-4.752-27.705,23.083-45.137,56.011-51.363C119.485,28.839,145.199,57.564,145.199,85.932z"/>
	<g>
		<polygon fill="none" stroke="#FFFFFF" stroke-width="3" stroke-miterlimit="10" points="25.059,26.192 103.279,3.102 
			119.146,83.689 90.273,101.287 56.334,102.332 		"/>
		
			<polygon fill="none" stroke="#FFFFFF" stroke-width="3" stroke-linecap="round" stroke-linejoin="round" stroke-miterlimit="10" points="
			92.951,21.79 44.366,36.133 56.536,64.862 89.582,55.107 91.072,66.604 81.759,73.339 69.735,72.979 67.437,67.901 57.758,70.758 
			63.806,84.119 84.709,85.123 103.146,72.584 97.584,43.361 63.227,53.504 59.673,41.603 94.562,31.722 		"/>
	</g>
	<g>
		<path fill="#FFFFFF" d="M60.863,141.19h-6.715v-12.104H41.837v12.104h-6.694V111.47h6.694v11.855h12.312V111.47h6.715V141.19z"/>
		<path fill="#FFFFFF" d="M88.532,116.921h-8.477v24.27h-6.715v-24.27h-8.436v-5.451h23.627V116.921z"/>
		<path fill="#FFFFFF" d="M126.398,141.19h-6.611v-17.782c0-1.921,0.084-4.041,0.249-6.363h-0.165
			c-0.346,1.823-0.656,3.137-0.934,3.938l-6.964,20.207h-5.472l-7.089-20.001c-0.192-0.538-0.504-1.92-0.933-4.145h-0.186
			c0.18,2.93,0.27,5.499,0.27,7.709v16.437h-6.032V111.47h9.805l6.072,17.617c0.483,1.408,0.835,2.825,1.057,4.248h0.125
			c0.373-1.644,0.767-3.073,1.182-4.289l6.072-17.576h9.554V141.19z"/>
		<path fill="#FFFFFF" d="M150.855,141.19h-17.7V111.47h6.694v24.291h11.006V141.19z"/>
	</g>
</g>
<g id="網頁設計1" display="none">
</g>
<g id="網頁設計_x5F_深">
</g>
<g id="配色" display="none">
</g>
<g id="Logo" display="none">
</g>
<g id="吉祥物設計" display="none">
</g>
</svg>
