<?xml version="1.0" encoding="utf-8"?>
<!-- Generator: Adobe Illustrator 16.0.0, SVG Export Plug-In . SVG Version: 6.00 Build 0)  -->
<!DOCTYPE svg PUBLIC "-//W3C//DTD SVG 1.1//EN" "http://www.w3.org/Graphics/SVG/1.1/DTD/svg11.dtd">
<svg version="1.1" xmlns="http://www.w3.org/2000/svg" xmlns:xlink="http://www.w3.org/1999/xlink" x="0px" y="0px"
	 width="177.251px" height="170.562px" viewBox="0 0 177.251 170.562" enable-background="new 0 0 177.251 170.562"
	 xml:space="preserve">
<g id="圖層_1">
	<rect x="-270.749" y="-106" display="none" fill="#273040" width="720" height="1205"/>
	<path fill="#1A212B" d="M175.266,132.572C179.317,152.842,135.719,170,86.937,170s-92.943-17.279-88.328-37.428
		c5.503-24.03,39.546-37.429,88.328-37.429S170.462,108.542,175.266,132.572z"/>
	<path fill="#76E2E5" d="M142.252,85.173c0,28.368-8.825,51.364-56.011,51.364c-30.934,0-51.204-23.341-56.011-51.364
		C25.479,57.468,53.313,40.036,86.241,33.81C116.538,28.081,142.252,56.806,142.252,85.173z"/>
	<g>
		<polygon fill="#FFFFFF" points="44.251,111 44.251,143 70.251,143 70.251,132.083 55.503,132.385 55.557,122 70.251,122 
			70.251,111 		"/>
		<polygon fill="#FFFFFF" points="101.251,111 101.251,118 81.251,118 81.251,124 101.251,124 101.251,143 73.251,143 73.251,136 
			93.251,136 93.251,130 73.251,130 73.251,111 		"/>
		<polygon fill="#FFFFFF" points="132.251,111 132.251,118 112.251,118 112.251,124 132.251,124 132.251,143 104.251,143 
			104.251,136 125.251,136 125.251,130 104.251,130 104.251,111 		"/>
	</g>
	<g>
		<polygon fill="none" stroke="#FFFFFF" stroke-width="3" stroke-miterlimit="10" points="67.64,3.34 146.305,24.869 
			117.388,101.746 83.575,101.514 54.166,84.543 		"/>
		
			<polygon fill="none" stroke="#FFFFFF" stroke-width="3" stroke-linecap="round" stroke-linejoin="round" stroke-miterlimit="10" points="
			77.931,20.671 74.763,32.246 115.272,43.333 112.369,53.942 74.058,43.457 71.268,53.062 108.282,63.191 103.446,76.745 
			90.925,77.172 79.474,70.165 81.09,61.905 70.683,58.733 67.588,75.928 87.812,88.549 110.896,88.375 130.706,35.115 		"/>
	</g>
</g>
<g id="網頁設計1" display="none">
</g>
<g id="網頁設計_x5F_深">
</g>
<g id="配色" display="none">
</g>
<g id="Logo" display="none">
</g>
<g id="吉祥物設計" display="none">
</g>
</svg>
